<?xml version="1.0" encoding="utf-8"?>
<!-- Generator: Adobe Illustrator 18.1.1, SVG Export Plug-In . SVG Version: 6.00 Build 0)  -->
<svg version="1.1" id="Layer_1" xmlns="http://www.w3.org/2000/svg" xmlns:xlink="http://www.w3.org/1999/xlink" x="0px" y="0px"
	 viewBox="-1.7 256.7 598.6 328.5" enable-background="new -1.7 256.7 598.6 328.5" xml:space="preserve">
<g>
	<g>
		<g>
			<path d="M59.4,397.3v-5.1h12.4v-80.4H59.4v-5.1h30.1v5.1H77.1v37.4h57.5v-37.4h-12.4v-5.1h30.1v5.1H140v80.4h12.4v5.1h-30.1v-5.1
				h12.4v-37.6H77.1v37.6h12.4v5.1H59.4z"/>
			<path d="M158.8,397.3v-5.1h12.4v-80.4h-12.4v-5.1h62.6v16.9h-5.4v-11.8h-39.5v37.1h36.3v5.1h-36.3v37.9h41.9v-12.4h5.4v17.7
				L158.8,397.3L158.8,397.3z"/>
			<path d="M225.5,397.3v-5.1h9.7l32.2-85.5h5.9l32,85.5h9.7v5.1h-26.6v-5.1h11l-9.9-26.1H251l-9.7,26.1h11v5.1H225.5z M252.9,360.7
				h34.7l-15.9-42.2c0-0.3-0.3-0.8-0.5-1.6c-0.3-0.8-0.5-1.3-0.5-1.6c-0.3-0.8-0.3-1.1-0.3-1.6h-0.3c0,0.3,0,0.8-0.3,1.6
				c0,0.3-0.3,0.8-0.5,1.6s-0.3,1.3-0.5,1.9L252.9,360.7z"/>
			<path d="M315.8,397.3v-5.1h12.4v-80.4h-12.4v-5.1h38.2c6.2,0,11.3,0.8,15.6,2.1c9.4,3.5,14,11,14,22c0,7-1.9,12.9-5.9,17.7
				c-3.8,4.6-9.1,7.5-15.9,8.3v0.3l0.8,0.8c0.8,0.8,1.3,1.6,1.9,2.4l16.9,29c0.8,1.3,1.6,2.1,2.4,2.4c0.8,0.3,2.1,0.5,4,0.5h2.4v5.1
				h-2.4c-3.8,0-6.4-0.3-7.8-1.1s-2.7-2.7-4.6-5.6l-16.1-27.4c-1.3-2.4-2.7-4-4-4.8s-3.5-1.1-6.7-1.1h-15v34.9h12.4v5.1h-30.1V397.3
				z M333.5,352.1h23.9c5.9,0,10.7-1.9,14.5-5.6c3.8-3.8,5.6-8.9,5.6-15.3c0-8.9-3.8-14.5-11-17.2c-3-1.3-7.3-1.9-12.9-1.9h-20.2
				L333.5,352.1L333.5,352.1z"/>
			<path d="M395.6,381.7v-7.8h5.6v6.7c0,4,2.1,7.3,6.4,9.7c4.3,2.4,9.4,3.8,15.3,3.8c6.7,0,12.1-1.6,16.1-4.8
				c4-3.2,6.2-7.8,6.2-13.7c0-3.2-0.5-5.9-1.9-8.3c-1.1-2.4-3-4.6-5.4-6.2c-2.4-1.9-4.8-3.2-7-4.3c-2.1-1.1-5.4-2.1-8.9-3.5
				c-8.1-3.2-13.4-5.6-16.1-7.8c-5.4-4-8.1-9.7-8.1-16.7c0-7.3,2.4-12.9,7.5-16.9c4.8-4,11.3-6.2,18.8-6.2c6.7,0,12.6,1.3,17.5,3.8
				c5.1,2.4,7.5,5.6,7.5,9.7v8.6h-5.6v-7.5c0-3-1.9-5.4-5.9-7c-4-1.9-8.3-2.7-13.4-2.7c-5.9,0-10.8,1.6-14.8,4.6
				c-3.8,3-5.6,7.3-5.6,12.4c0,2.4,0.5,4.3,1.3,6.4c0.8,1.9,1.9,3.5,3,4.6c1.1,1.3,2.7,2.4,5.1,3.8c2.4,1.3,4.3,2.1,5.6,3
				c1.6,0.5,3.8,1.6,7,2.7c8.6,3.5,14.2,6.2,17.2,8.3c5.6,4.3,8.6,10.5,8.6,18c0,7.3-2.7,13.2-7.8,18c-5.1,4.6-12.1,7-20.2,7
				c-7,0-13.2-1.6-18.8-4.6C398.6,391.4,395.6,387.1,395.6,381.7z"/>
			<path d="M458.5,397.3v-5.1h12.4v-80.4h-12.4v-5.1h62.6v16.9h-5.4v-11.8h-39.2v37.1h36.3v5.1h-36.3v37.9h41.9v-12.4h5.4v17.7
				L458.5,397.3L458.5,397.3z"/>
		</g>
		<g>
			<path d="M59.7,534.4V529h12.9v-85.2H59.7v-5.4h42.5c7.3,0,12.6,1.1,16.7,3c4.6,2.1,8.1,5.4,10.7,9.7c2.7,4.3,4,9.4,4,15.3
				c0,6.4-1.6,11.8-4.6,16.4c-3.2,4.6-7.3,7.8-12.6,9.7c-3.5,1.3-8.3,1.9-14,1.9H78.7v34.4h13.2v5.4H59.7V534.4z M78.5,489.2h23.4
				c5.1,0,9.1-0.5,12.6-1.6c8.6-3.5,12.9-10.5,12.9-21c0-9.7-3.8-16.4-11.3-19.9c-4-2.1-8.6-3-14.2-3H78.5V489.2z"/>
			<path d="M143.5,534.4V529h12.9v-85.2h-12.9v-5.4h32v5.4h-13.2v84.9h13.2v5.4h-32V534.4z"/>
			<path d="M187.6,534.4V529h12.9v-85.2h-12.9v-5.4h32v5.4h-13.2v84.9h42.7v-16.4h5.6v22H187.6z"/>
			<path d="M264.4,534.4V529h12.9v-85.2h-12.9v-5.4h66.1v18h-5.6v-12.6h-41.7V483h38.4v5.4h-38.4v40h44.3v-13.2h5.6v18.8h-68.8
				V534.4z"/>
			<path d="M344,443.8v-5.4h32v5.4h-13.2v55.4c0,8.1,1.6,14.5,4.6,19.3c5.1,8.1,13.4,11.8,25.3,12.1c12.1,0,20.4-4.3,25.5-12.6
				c3-5.1,4.6-11.6,4.6-19.1v-55.1h-12.9v-5.4h32v5.4h-13.2v55.6c0,8.9-1.9,16.1-5.6,22c-6.2,9.7-16.4,14.5-30.1,14.5
				c-6.7,0-12.9-1.3-18.3-3.8c-5.4-2.7-9.4-6.2-12.6-11c-3.5-5.6-5.1-12.9-5.1-21.8v-55.6H344z"/>
			<path d="M451.5,534.4V529h12.9v-85.2h-12.9v-5.4H494c7.3,0,12.6,1.1,16.7,3c4.6,2.1,8.1,5.4,10.8,9.7c2.7,4.3,4,9.4,4,15.3
				c0,6.4-1.6,11.8-4.6,16.4c-3.2,4.6-7.3,7.8-12.6,9.7c-3.5,1.3-8.3,1.9-14,1.9h-23.9v34.4h13.2v5.4h-32V534.4z M470.3,489.2h23.4
				c5.1,0,9.1-0.5,12.6-1.6c8.6-3.5,12.9-10.5,12.9-21c0-9.7-3.8-16.4-11.3-19.9c-3.8-1.6-8.3-2.4-14-2.4h-23.6V489.2z"/>
		</g>
	</g>
	<g>
		<path d="M596.9,585.2H-1.7V256.7h598.6V585.2z M4.3,579.2h586.6V262.7H4.3V579.2z"/>
	</g>
</g>
</svg>
